<?xml version="1.0" standalone="no"?>
<!DOCTYPE svg PUBLIC "-//W3C//DTD SVG 20010904//EN"
 "http://www.w3.org/TR/2001/REC-SVG-20010904/DTD/svg10.dtd">
<svg version="1.0" xmlns="http://www.w3.org/2000/svg"
 width="842.000000pt" height="842.000000pt" viewBox="0 0 842.000000 842.000000"
 preserveAspectRatio="xMidYMid meet">
<metadata>
Created by potrace 1.11, written by Peter Selinger 2001-2013
</metadata>
<g transform="translate(0.000000,842.000000) scale(0.100000,-0.100000)"
fill="#000000" stroke="none">
<path d="M3279 7360 c-6 -4 -10 -10 -10 -14 0 -3 -1 -11 -3 -18 -16 -51 -120
-364 -168 -508 -33 -96 -61 -182 -63 -190 -7 -28 -166 -505 -175 -525 -5 -11
-12 -31 -14 -45 -3 -14 -16 -59 -31 -100 -15 -41 -28 -79 -30 -85 -1 -5 -3
-13 -5 -17 -1 -4 -35 -108 -77 -230 -41 -123 -76 -230 -78 -238 -2 -8 -20 -62
-40 -120 -20 -58 -38 -112 -40 -120 -2 -8 -29 -89 -60 -180 -31 -91 -58 -172
-60 -180 -2 -8 -20 -64 -40 -125 -46 -140 -45 -135 -43 -138 1 -1 -4 -12 -11
-25 -7 -13 -14 -31 -16 -41 -3 -16 -49 -156 -62 -191 -3 -8 -7 -19 -8 -25 -1
-5 -19 -59 -40 -120 -20 -60 -38 -117 -40 -125 -2 -8 -4 -16 -5 -17 -2 -2 -3
-6 -5 -10 -1 -5 -4 -15 -8 -23 -8 -22 -221 -663 -223 -675 -3 -12 -132 -403
-141 -425 -3 -8 -7 -19 -9 -25 -1 -5 -59 -181 -129 -390 -70 -209 -128 -387
-130 -395 -2 -8 -4 -15 -4 -15 -6 0 -97 -296 -93 -298 4 -2 317 -3 696 -3
l689 1 139 415 c77 228 140 420 142 425 3 13 53 163 106 320 22 66 52 156 66
200 14 44 28 87 31 95 3 8 7 20 9 25 1 6 25 75 52 155 27 80 101 303 165 495
64 193 135 404 157 470 22 66 52 156 66 200 14 44 28 87 31 95 4 8 7 17 8 20
1 3 4 12 8 20 3 8 81 242 173 520 92 278 198 597 236 710 38 113 71 212 73
220 3 8 21 62 40 120 20 58 43 125 50 150 8 25 43 133 80 240 37 107 68 203
70 212 2 9 9 26 15 37 10 20 19 21 170 21 158 0 170 -2 177 -35 3 -16 704
-2118 713 -2140 5 -11 16 -45 25 -75 9 -30 19 -62 22 -70 4 -8 7 -18 8 -22 2
-5 3 -9 4 -10 2 -4 152 -452 155 -463 2 -5 6 -17 9 -25 6 -17 30 -90 33 -105
2 -5 15 -44 29 -85 15 -41 28 -79 29 -85 4 -18 37 -120 46 -140 8 -19 89 -258
94 -280 2 -5 6 -17 9 -25 12 -32 40 -125 38 -128 -1 -1 5 -15 14 -32 8 -16 17
-37 18 -47 2 -10 7 -25 10 -33 7 -19 40 -122 43 -135 2 -5 12 -34 22 -62 11
-29 18 -53 16 -53 -3 0 2 -13 11 -30 8 -16 15 -32 15 -35 -1 -9 23 -89 30
-100 3 -5 12 -30 19 -55 7 -25 17 -54 22 -65 7 -18 19 -54 25 -80 5 -19 47
-140 55 -160 8 -19 81 -242 85 -257 1 -5 3 -10 4 -13 1 -3 3 -8 4 -12 5 -19
18 -60 26 -78 5 -11 23 -65 42 -120 18 -55 36 -102 39 -105 6 -4 389 -5 425
-1 6 0 -70 243 -169 539 -98 295 -180 544 -182 552 -2 8 -4 16 -5 18 -2 1 -3
5 -4 10 -3 14 -138 417 -146 437 -10 24 -109 323 -115 345 -6 26 -176 544
-186 565 -4 11 -23 65 -40 120 -17 55 -35 109 -39 120 -5 11 -23 65 -40 120
-17 55 -35 109 -40 120 -10 22 -239 717 -246 743 -2 9 -42 132 -90 272 -47
140 -87 262 -89 270 -2 8 -12 40 -23 70 -11 30 -26 75 -34 100 -8 25 -50 151
-93 280 -44 129 -79 237 -80 240 0 3 -54 165 -119 361 l-118 355 -456 0 -457
-1 -13 -28 c-7 -15 -15 -36 -17 -46 -3 -19 -90 -281 -102 -311 -3 -8 -7 -20
-8 -26 -3 -13 -123 -380 -132 -404 -4 -8 -7 -17 -8 -20 -1 -3 -4 -12 -8 -20
-12 -30 -520 -1575 -519 -1577 1 -2 -7 -23 -18 -48 -11 -25 -20 -49 -20 -53 0
-10 -40 -133 -50 -157 -5 -11 -32 -92 -60 -180 -28 -88 -53 -167 -57 -175 -3
-8 -7 -19 -9 -25 -1 -5 -41 -127 -89 -270 -48 -143 -88 -264 -89 -270 -2 -5
-6 -19 -10 -30 -22 -58 -27 -72 -31 -90 -2 -11 -20 -67 -40 -125 -19 -58 -47
-141 -61 -185 -14 -44 -28 -87 -31 -95 -3 -8 -7 -19 -9 -25 -4 -18 -225 -680
-231 -695 -3 -8 -7 -20 -8 -27 -2 -6 -26 -80 -54 -165 l-52 -154 -252 1 c-218
0 -252 2 -251 15 1 8 108 339 240 735 131 396 239 722 239 725 11 42 19 67 25
75 4 6 13 33 20 60 7 28 16 55 19 60 3 6 6 15 7 20 2 6 30 93 64 195 34 102
63 190 65 195 1 6 5 17 8 25 6 15 106 316 111 335 2 6 6 17 9 25 3 8 42 128
87 265 45 138 87 266 95 285 14 36 397 1197 401 1215 1 6 12 37 23 70 39 109
132 390 136 408 2 10 18 59 36 109 17 49 32 95 34 101 1 7 5 19 8 27 7 16 77
234 80 247 2 10 -418 12 -434 3z"/>
</g>
</svg>
